<svg xmlns="http://www.w3.org/2000/svg">
  <symbol id="logo" viewBox="0 0 200 60">
    <title>Playbasis</title>
    <path d="M22.3,40.5c16.9,5.1,28.1-7,28.1-19.4c0-16.8-19.9-26.2-34.6-17c-1,0.7-2.1,1.5-3,2.3c-2.2,2-3.9,4.5-5.1,7 c-2.4,5-3,10.1-2.9,14.7c0.3,9.1,3.4,16.4,6.6,21.3s6.7,7.3,7.3,7.8c10.1,7.2,17.5-4.2,7.7-11c-0.2-0.2-1.1-0.7-2.4-1.9 c-0.6-0.6-1.3-1.3-2.1-2.3c-1.2-1.5-2.4-3.5-3.5-6C5.4,5.9,43.6,3.2,43.6,23.3C43.6,32.7,33.9,43,22.3,40.5z"/>
    <path d="M70.2,35.9c-1.4,0-2.6-0.4-3.7-1.3v5.3c0,0.3-0.1,0.6-0.3,0.8S65.7,41,65.4,41s-0.6-0.1-0.8-0.3 c-0.2-0.2-0.3-0.5-0.3-0.8V30c0-1.6,0.6-3,1.7-4.2c1.2-1.2,2.5-1.7,4.2-1.7c1.6,0,3,0.6,4.2,1.7c0.6,0.6,1,1.2,1.3,1.9 c0.3,0.7,0.4,1.5,0.4,2.3c0,1.6-0.6,3-1.7,4.2c-0.6,0.6-1.2,1-1.9,1.3C71.7,35.8,71,35.9,70.2,35.9z M66.5,30c0,0.5,0.1,1,0.3,1.4 c0.2,0.5,0.5,0.8,0.8,1.2c0.3,0.3,0.7,0.6,1.2,0.8c0.4,0.2,0.9,0.3,1.5,0.3c0.5,0,1-0.1,1.4-0.3s0.8-0.5,1.2-0.8 c0.3-0.3,0.6-0.7,0.8-1.2C73.9,31,74,30.5,74,30s-0.1-1-0.3-1.4c-0.2-0.4-0.5-0.8-0.8-1.2s-0.7-0.6-1.2-0.8 c-0.4-0.2-0.9-0.3-1.4-0.3s-1,0.1-1.5,0.3c-0.4,0.2-0.8,0.5-1.2,0.8c-0.3,0.3-0.6,0.7-0.8,1.2C66.6,29,66.5,29.5,66.5,30z M82,34.8 V20.2c0-0.3,0.1-0.6,0.3-0.8c0.2-0.2,0.5-0.3,0.8-0.3s0.6,0.1,0.8,0.3c0.2,0.2,0.3,0.5,0.3,0.8v13.5h0.5c0.3,0,0.6,0.1,0.8,0.3 c0.2,0.2,0.3,0.5,0.3,0.8s-0.1,0.6-0.3,0.8s-0.5,0.3-0.8,0.3h-1.6c-0.3,0-0.6-0.1-0.8-0.3C82.1,35.4,82,35.1,82,34.8L82,34.8z M101,34.8v-0.2c-0.5,0.4-1.1,0.7-1.7,1c-0.6,0.2-1.3,0.3-2,0.3c-1.6,0-3-0.6-4.2-1.7C92,33,91.4,31.6,91.4,30s0.6-3,1.7-4.2 c1.2-1.2,2.5-1.7,4.2-1.7c1.6,0,3,0.6,4.2,1.7s1.7,2.5,1.7,4.2v4.8c0,0.3-0.1,0.6-0.3,0.8c-0.2,0.2-0.5,0.3-0.8,0.3 s-0.6-0.1-0.8-0.3C101.1,35.4,101,35.1,101,34.8z M97.3,26.3c-0.5,0-1,0.1-1.5,0.3c-0.4,0.2-0.8,0.5-1.2,0.8 c-0.3,0.3-0.6,0.7-0.8,1.2c-0.2,0.5-0.3,0.9-0.3,1.4s0.1,1,0.3,1.4c0.2,0.5,0.5,0.8,0.8,1.2c0.3,0.3,0.7,0.6,1.2,0.8 c0.4,0.2,0.9,0.3,1.5,0.3c0.5,0,1-0.1,1.4-0.3s0.8-0.5,1.2-0.8c0.3-0.3,0.6-0.7,0.8-1.2c0.2-0.4,0.3-0.9,0.3-1.4s-0.1-1-0.3-1.4 c-0.2-0.4-0.5-0.8-0.8-1.2s-0.7-0.6-1.2-0.8C98.3,26.4,97.8,26.3,97.3,26.3z M113.1,34.8l-3.8-9.1c-0.1-0.2-0.1-0.3-0.1-0.5 c0-0.1,0-0.3,0.1-0.4s0.1-0.3,0.2-0.4s0.2-0.2,0.3-0.2c0.1-0.1,0.3-0.1,0.4-0.1c0.2,0,0.4,0.1,0.6,0.2s0.3,0.3,0.4,0.5l3,7.1l3-7.1 c0.1-0.2,0.2-0.4,0.4-0.5c0.2-0.1,0.4-0.2,0.7-0.2c0.2,0,0.3,0,0.4,0.1s0.2,0.1,0.3,0.2c0.1,0.1,0.2,0.2,0.2,0.4 c0.1,0.1,0.1,0.3,0.1,0.4c0,0.2,0,0.3-0.1,0.5l-6.1,14.5c-0.1,0.2-0.2,0.4-0.4,0.5c-0.2,0.1-0.4,0.2-0.6,0.2c-0.3,0-0.6-0.1-0.8-0.3 c-0.2-0.2-0.3-0.5-0.3-0.8c0-0.2,0-0.3,0.1-0.5C111.2,39.4,113.1,34.8,113.1,34.8z M127.5,25.4c1-0.9,2.3-1.3,3.7-1.3 c1.6,0,3,0.6,4.2,1.7c0.6,0.6,1,1.2,1.3,1.9c0.3,0.7,0.4,1.5,0.4,2.3c0,1.6-0.6,3-1.7,4.2c-1.2,1.2-2.6,1.7-4.2,1.7 c-1.6,0-3-0.6-4.2-1.7c-1.2-1.2-1.7-2.5-1.7-4.2v-9.9c0-0.3,0.1-0.6,0.3-0.8c0.2-0.2,0.5-0.3,0.8-0.3s0.6,0.1,0.8,0.3 c0.2,0.2,0.3,0.5,0.3,0.8L127.5,25.4L127.5,25.4z M131.2,33.7c0.5,0,1-0.1,1.4-0.3s0.8-0.5,1.2-0.8c0.3-0.3,0.6-0.7,0.8-1.2 c0.2-0.4,0.3-0.9,0.3-1.4s-0.1-1-0.3-1.4s-0.5-0.8-0.8-1.2s-0.7-0.6-1.2-0.8c-0.4-0.2-0.9-0.3-1.4-0.3s-1,0.1-1.5,0.3 c-0.4,0.2-0.8,0.5-1.2,0.8c-0.3,0.3-0.6,0.7-0.8,1.2c-0.2,0.5-0.3,0.9-0.3,1.4s0.1,1,0.3,1.4c0.2,0.5,0.5,0.8,0.8,1.2 c0.3,0.3,0.7,0.6,1.2,0.8C130.2,33.6,130.7,33.7,131.2,33.7z M152.7,34.8v-0.2c-0.5,0.4-1.1,0.7-1.7,1c-0.6,0.2-1.3,0.3-2,0.3 c-1.6,0-3-0.6-4.2-1.7c-1.2-1.2-1.7-2.5-1.7-4.2c0-1.6,0.6-3,1.7-4.2c1.1-1.2,2.5-1.7,4.2-1.7c1.6,0,3,0.6,4.2,1.7 c1.1,1.1,1.7,2.5,1.7,4.2v4.8c0,0.3-0.1,0.6-0.3,0.8s-0.5,0.3-0.8,0.3s-0.6-0.1-0.8-0.3C152.8,35.4,152.7,35.1,152.7,34.8z M149,26.3c-0.5,0-1,0.1-1.5,0.3c-0.4,0.2-0.8,0.5-1.2,0.8c-0.3,0.3-0.6,0.7-0.8,1.2s-0.3,0.9-0.3,1.4s0.1,1,0.3,1.4 c0.2,0.5,0.5,0.8,0.8,1.2c0.3,0.3,0.7,0.6,1.2,0.8c0.4,0.2,0.9,0.3,1.5,0.3c0.5,0,1-0.1,1.4-0.3s0.8-0.5,1.2-0.8 c0.3-0.3,0.6-0.7,0.8-1.2c0.2-0.4,0.3-0.9,0.3-1.4s-0.1-1-0.3-1.4s-0.5-0.8-0.8-1.2c-0.3-0.3-0.7-0.6-1.2-0.8 C150,26.4,149.5,26.3,149,26.3z M163,30.3c-0.7-0.3-1.1-0.5-1.4-0.8l0,0c-0.5-0.5-0.8-1.2-0.8-1.9c0-0.5,0.1-1,0.4-1.4 c0.3-0.4,0.7-0.8,1.1-1.1c0.5-0.3,1-0.5,1.5-0.7c0.6-0.2,1.1-0.2,1.7-0.2c1.8,0,3.3,0.7,4.5,2.1c0.1,0.2,0.2,0.4,0.2,0.7 c0,0.3-0.1,0.6-0.3,0.8c-0.2,0.2-0.5,0.3-0.8,0.3c-0.2,0-0.4-0.1-0.6-0.2c-0.2-0.1-0.3-0.3-0.5-0.4c-0.7-0.7-1.6-1.1-2.6-1.1 s-1.8,0.3-2.4,0.9c-0.1,0.1-0.2,0.3-0.2,0.5s0.1,0.3,0.3,0.4l4.9,1.6c0.7,0.3,1.1,0.5,1.4,0.8l0,0c0.5,0.5,0.8,1.2,0.8,1.9 c0,0.5-0.1,1-0.4,1.5c-0.3,0.4-0.7,0.8-1.1,1.1c-0.5,0.3-1,0.5-1.5,0.7c-0.6,0.2-1.1,0.2-1.7,0.2c-1.8,0-3.3-0.7-4.5-2.1 c-0.2-0.2-0.2-0.4-0.2-0.7s0.1-0.6,0.3-0.8s0.5-0.3,0.8-0.3c0.2,0,0.4,0.1,0.6,0.2l0.4,0.4c0.7,0.7,1.6,1.1,2.6,1.1s1.8-0.3,2.4-0.9 c0.1-0.1,0.2-0.3,0.2-0.4c0-0.2-0.1-0.3-0.3-0.4C168,31.9,163,30.3,163,30.3z M179.3,22c0,0.4-0.1,0.7-0.4,0.9 c-0.3,0.3-0.6,0.4-0.9,0.4c-0.4,0-0.7-0.1-0.9-0.4c-0.3-0.3-0.4-0.6-0.4-0.9c0-0.4,0.1-0.7,0.4-0.9c0.3-0.3,0.6-0.4,0.9-0.4 s0.7,0.1,0.9,0.4C179.2,21.3,179.3,21.7,179.3,22z M177,34.8v-9.6c0-0.3,0.1-0.6,0.3-0.8c0.2-0.2,0.5-0.3,0.8-0.3s0.6,0.1,0.8,0.3 c0.2,0.2,0.3,0.5,0.3,0.8v9.6c0,0.3-0.1,0.6-0.3,0.8s-0.5,0.3-0.8,0.3s-0.6-0.1-0.8-0.3C177.1,35.4,177,35.1,177,34.8z M187.9,30.3 c-0.7-0.3-1.1-0.5-1.4-0.8l0,0c-0.5-0.5-0.8-1.2-0.8-1.9c0-0.5,0.1-1,0.4-1.4c0.3-0.4,0.7-0.8,1.1-1.1c0.5-0.3,1-0.5,1.5-0.7 c0.6-0.2,1.1-0.2,1.7-0.2c1.8,0,3.3,0.7,4.5,2.1c0.1,0.2,0.2,0.4,0.2,0.7c0,0.3-0.1,0.6-0.3,0.8c-0.2,0.2-0.5,0.3-0.8,0.3 c-0.2,0-0.4-0.1-0.6-0.2c-0.2-0.1-0.3-0.3-0.5-0.4c-0.7-0.7-1.6-1.1-2.6-1.1s-1.8,0.3-2.4,0.9c-0.1,0.1-0.2,0.3-0.2,0.5 s0.1,0.3,0.3,0.4l4.9,1.6c0.7,0.3,1.2,0.5,1.4,0.8l0,0c0.5,0.5,0.8,1.2,0.8,1.9c0,0.5-0.1,1-0.4,1.5c-0.3,0.4-0.7,0.8-1.1,1.1 c-0.5,0.3-1,0.5-1.5,0.7c-0.6,0.2-1.1,0.2-1.7,0.2c-1.8,0-3.3-0.7-4.5-2.1c-0.2-0.2-0.2-0.4-0.2-0.7s0.1-0.6,0.3-0.8 s0.5-0.3,0.8-0.3c0.2,0,0.4,0.1,0.6,0.2l0.4,0.4c0.7,0.7,1.6,1.1,2.6,1.1s1.8-0.3,2.4-0.9c0.1-0.1,0.2-0.3,0.2-0.4 c0-0.2-0.1-0.3-0.3-0.4L187.9,30.3L187.9,30.3z"/>
  </symbol>
</svg> 